<svg xmlns="http://www.w3.org/2000/svg" version="1.1" xmlns:xlink="http://www.w3.org/1999/xlink" xmlns:svgjs="http://svgjs.dev/svgjs" width="1920" height="1080" preserveAspectRatio="none" viewBox="0 0 1920 1080"><g mask="url(&quot;#SvgjsMask1050&quot;)" fill="none"><rect width="1920" height="1080" x="0" y="0" fill="rgba(114, 196, 249, 1)"></rect><path d="M0,716.993C150.106,731.76,325.498,783.699,442.407,688.398C560.47,592.157,538.834,407.72,563.74,257.451C582.625,143.507,568.774,33.525,570.09,-81.966C571.695,-222.797,644.778,-375.148,572.325,-495.922C499.13,-617.933,345.361,-682.143,203.497,-693.048C70.585,-703.264,-32.271,-582.215,-162.194,-552.382C-304.598,-519.683,-468.494,-592.607,-589.64,-510.926C-716.996,-425.058,-802.761,-269.786,-808.958,-116.311C-815.024,33.902,-697.153,153.887,-621.738,283.938C-553.927,400.877,-500.716,529.269,-389.793,606.53C-276.686,685.311,-137.177,703.498,0,716.993" fill="#1ba0f5"></path><path d="M1920 1915.347C2073.816 1909.757 2148.883 1719.595 2285.585 1648.8609999999999 2443.593 1567.103 2671.7110000000002 1614.6309999999999 2777.544 1471.627 2882.522 1329.778 2840.719 1125.205 2800.244 953.44 2762.034 791.288 2685.072 634.046 2555.499 529.337 2435.197 432.12 2267.787 444.509 2118.845 402.79600000000005 1972.25 361.741 1837.782 265.95399999999995 1686.882 286.073 1526.077 307.51199999999994 1352.3 376.749 1269.1950000000002 516.074 1187.22 653.506 1272.981 826.443 1269.1390000000001 986.42 1265.864 1122.772 1198.914 1259.62 1248.284 1386.762 1298.613 1516.375 1427.663 1590.084 1536.93 1676.068 1657.69 1771.096 1766.435 1920.9279999999999 1920 1915.347" fill="#c9e8fd"></path></g><defs><mask id="SvgjsMask1050"><rect width="1920" height="1080" fill="#ffffff"></rect></mask></defs></svg>